<?xml version="1.0" encoding="UTF-8"?>
<!DOCTYPE svg PUBLIC "-//W3C//DTD SVG 1.1//EN" "http://www.w3.org/Graphics/SVG/1.1/DTD/svg11.dtd">
<svg xmlns="http://www.w3.org/2000/svg" version="1.1" width="500px" height="500px" style="shape-rendering:geometricPrecision; text-rendering:geometricPrecision; image-rendering:optimizeQuality; fill-rule:evenodd; clip-rule:evenodd" xmlns:xlink="http://www.w3.org/1999/xlink">
<g><path style="opacity:0.004" fill="#fefffe" d="M 75.5,1.5 C 76.8333,2.16667 76.8333,2.16667 75.5,1.5 Z"/></g>
<g><path style="opacity:0.004" fill="#fefffe" d="M 101.5,14.5 C 102.833,15.1667 102.833,15.1667 101.5,14.5 Z"/></g>
<g><path style="opacity:0.004" fill="#fefffe" d="M 93.5,16.5 C 94.8333,17.1667 94.8333,17.1667 93.5,16.5 Z"/></g>
<g><path style="opacity:0.004" fill="#fefffe" d="M 8.5,17.5 C 9.83333,18.1667 9.83333,18.1667 8.5,17.5 Z"/></g>
<g><path style="opacity:0.004" fill="#fefffe" d="M 30.5,24.5 C 31.8333,25.1667 31.8333,25.1667 30.5,24.5 Z"/></g>
<g><path style="opacity:0.004" fill="#fefffe" d="M 197.5,27.5 C 198.833,28.1667 198.833,28.1667 197.5,27.5 Z"/></g>
<g><path style="opacity:0.004" fill="#fefffe" d="M 444.5,29.5 C 445.833,30.1667 445.833,30.1667 444.5,29.5 Z"/></g>
<g><path style="opacity:0.004" fill="#fefffe" d="M 453.5,44.5 C 454.833,45.1667 454.833,45.1667 453.5,44.5 Z"/></g>
<g><path style="opacity:0.004" fill="#fefffe" d="M 202.5,51.5 C 203.833,52.1667 203.833,52.1667 202.5,51.5 Z"/></g>
<g><path style="opacity:0.004" fill="#fefffe" d="M 29.5,66.5 C 30.8333,67.1667 30.8333,67.1667 29.5,66.5 Z"/></g>
<g><path style="opacity:0.004" fill="#fefffe" d="M 62.5,72.5 C 63.8333,73.1667 63.8333,73.1667 62.5,72.5 Z"/></g>
<g><path style="opacity:0.004" fill="#fefffe" d="M 30.5,86.5 C 31.8333,87.1667 31.8333,87.1667 30.5,86.5 Z"/></g>
<g><path style="opacity:0.004" fill="#fefffe" d="M 44.5,104.5 C 45.8333,105.167 45.8333,105.167 44.5,104.5 Z"/></g>
<g><path style="opacity:0.004" fill="#fefffe" d="M 395.5,107.5 C 396.833,108.167 396.833,108.167 395.5,107.5 Z"/></g>
<g><path style="opacity:0.004" fill="#fefffe" d="M 91.5,115.5 C 92.8333,116.167 92.8333,116.167 91.5,115.5 Z"/></g>
<g><path style="opacity:0.004" fill="#fefffe" d="M 255.5,120.5 C 256.833,121.167 256.833,121.167 255.5,120.5 Z"/></g>
<g><path style="opacity:0.004" fill="#fefffe" d="M 199.5,125.5 C 200.833,126.167 200.833,126.167 199.5,125.5 Z"/></g>
<g><path style="opacity:0.004" fill="#fefffe" d="M 96.5,129.5 C 97.8333,130.167 97.8333,130.167 96.5,129.5 Z"/></g>
<g><path style="opacity:0.534" fill="#3b77c8" d="M 243.5,130.5 C 258.676,130.171 273.676,130.504 288.5,131.5C 277.5,131.5 266.5,131.5 255.5,131.5C 249.204,131.059 243.204,132.059 237.5,134.5C 238.663,132.018 240.663,130.684 243.5,130.5 Z"/></g>
<g><path style="opacity:0.549" fill="#6bb4df" d="M 243.5,130.5 C 292.332,129.335 341.332,129.168 390.5,130C 393.025,130.424 395.025,131.59 396.5,133.5C 395.078,133.291 393.745,132.791 392.5,132C 368.836,131.5 345.169,131.333 321.5,131.5C 311.167,131.5 300.833,131.5 290.5,131.5C 289.833,131.5 289.167,131.5 288.5,131.5C 273.676,130.504 258.676,130.171 243.5,130.5 Z"/></g>
<g><path style="opacity:1" fill="#1798f3" d="M 290.5,131.5 C 300.833,131.5 311.167,131.5 321.5,131.5C 326.305,132.487 331.305,132.821 336.5,132.5C 336.5,133.5 336.5,134.5 336.5,135.5C 338.857,135.337 341.19,135.503 343.5,136C 343.957,136.414 344.291,136.914 344.5,137.5C 341.833,138.5 339.167,139.5 336.5,140.5C 346.904,142.551 346.904,143.551 336.5,143.5C 336.5,144.5 336.5,145.5 336.5,146.5C 341.544,146.173 346.544,146.506 351.5,147.5C 341.188,148.499 330.855,148.832 320.5,148.5C 318.7,147.307 317.033,146.14 315.5,145C 316.833,144.333 318.167,143.667 319.5,143C 312.833,141.333 312.833,139.667 319.5,138C 320.833,137.333 320.833,136.667 319.5,136C 315.833,135.667 312.167,135.333 308.5,135C 310.246,134.529 311.913,133.862 313.5,133C 305.656,132.829 297.989,132.329 290.5,131.5 Z"/></g>
<g><path style="opacity:1" fill="#1b9bee" d="M 321.5,131.5 C 345.169,131.333 368.836,131.5 392.5,132C 393.745,132.791 395.078,133.291 396.5,133.5C 396.795,135.735 396.461,137.735 395.5,139.5C 395.631,138.624 395.298,137.957 394.5,137.5C 391.833,139.167 389.167,140.833 386.5,142.5C 385.614,143.325 385.281,144.325 385.5,145.5C 384.167,145.5 382.833,145.5 381.5,145.5C 382.422,149.482 380.922,151.816 377,152.5C 377.419,150.497 378.253,148.497 379.5,146.5C 378.028,146.594 376.862,145.594 376,143.5C 375.147,145.935 374.147,148.269 373,150.5C 367.631,148.899 362.631,146.565 358,143.5C 357.5,143.833 357,144.167 356.5,144.5C 358.171,146.978 360.504,148.478 363.5,149C 364.738,149.69 364.738,150.19 363.5,150.5C 338.167,150.5 312.833,150.5 287.5,150.5C 298.371,149.791 309.371,149.124 320.5,148.5C 330.855,148.832 341.188,148.499 351.5,147.5C 346.544,146.506 341.544,146.173 336.5,146.5C 336.5,145.5 336.5,144.5 336.5,143.5C 346.904,143.551 346.904,142.551 336.5,140.5C 339.167,139.5 341.833,138.5 344.5,137.5C 344.291,136.914 343.957,136.414 343.5,136C 341.19,135.503 338.857,135.337 336.5,135.5C 336.5,134.5 336.5,133.5 336.5,132.5C 331.305,132.821 326.305,132.487 321.5,131.5 Z"/></g>
<g><path style="opacity:1" fill="#447ee7" d="M 141.5,146.5 C 139.605,145.297 137.605,144.131 135.5,143C 134.301,140.516 132.468,140.35 130,142.5C 129.506,144.134 129.34,145.801 129.5,147.5C 128.5,147.5 127.5,147.5 126.5,147.5C 126.5,149.167 126.5,150.833 126.5,152.5C 124.413,151.415 123.08,149.749 122.5,147.5C 115.201,143.925 113.368,138.592 117,131.5C 121.389,128.702 125.556,129.035 129.5,132.5C 133.92,136.911 137.92,141.578 141.5,146.5 Z"/></g>
<g><path style="opacity:0.004" fill="#fefffe" d="M 229.5,143.5 C 230.833,144.167 230.833,144.167 229.5,143.5 Z"/></g>
<g><path style="opacity:1" fill="#2882f0" d="M 255.5,131.5 C 265.706,132.129 276.04,132.963 286.5,134C 285.833,134.333 285.167,134.667 284.5,135C 286.9,135.186 289.234,135.686 291.5,136.5C 285.732,137.239 280.065,138.405 274.5,140C 277.633,140.393 280.633,141.226 283.5,142.5C 284.689,142.244 285.856,141.911 287,141.5C 288.257,141.85 288.591,142.517 288,143.5C 285.426,145.002 282.593,146.002 279.5,146.5C 283.361,147.598 283.361,148.431 279.5,149C 267.491,149.389 255.491,149.889 243.5,150.5C 239.583,149.752 237.083,147.418 236,143.5C 235.219,140.183 235.719,137.183 237.5,134.5C 243.204,132.059 249.204,131.059 255.5,131.5 Z"/></g>
<g><path style="opacity:1" fill="#2576f4" d="M 122.5,147.5 C 121.589,144.698 119.923,142.365 117.5,140.5C 116.548,138.955 116.215,137.288 116.5,135.5C 117.873,135.343 119.207,135.51 120.5,136C 122.319,138.65 124.653,140.817 127.5,142.5C 125.995,143.842 125.328,145.508 125.5,147.5C 124.5,147.5 123.5,147.5 122.5,147.5 Z"/></g>
<g><path style="opacity:1" fill="#278eee" d="M 255.5,131.5 C 266.5,131.5 277.5,131.5 288.5,131.5C 289.167,131.5 289.833,131.5 290.5,131.5C 297.989,132.329 305.656,132.829 313.5,133C 311.913,133.862 310.246,134.529 308.5,135C 312.167,135.333 315.833,135.667 319.5,136C 320.833,136.667 320.833,137.333 319.5,138C 312.833,139.667 312.833,141.333 319.5,143C 318.167,143.667 316.833,144.333 315.5,145C 317.033,146.14 318.7,147.307 320.5,148.5C 309.371,149.124 298.371,149.791 287.5,150.5C 282.305,150.179 277.305,150.513 272.5,151.5C 262.652,151.827 252.986,151.494 243.5,150.5C 255.491,149.889 267.491,149.389 279.5,149C 283.361,148.431 283.361,147.598 279.5,146.5C 282.593,146.002 285.426,145.002 288,143.5C 288.591,142.517 288.257,141.85 287,141.5C 285.856,141.911 284.689,142.244 283.5,142.5C 280.633,141.226 277.633,140.393 274.5,140C 280.065,138.405 285.732,137.239 291.5,136.5C 289.234,135.686 286.9,135.186 284.5,135C 285.167,134.667 285.833,134.333 286.5,134C 276.04,132.963 265.706,132.129 255.5,131.5 Z"/></g>
<g><path style="opacity:1" fill="#2479f1" d="M 141.5,146.5 C 141.833,146.5 142.167,146.5 142.5,146.5C 142.232,148.099 142.566,149.432 143.5,150.5C 140.662,152.306 140.995,153.306 144.5,153.5C 144.452,156.635 142.785,158.302 139.5,158.5C 140.167,159.5 140.833,160.5 141.5,161.5C 140.833,161.833 140.167,162.167 139.5,162.5C 137.215,160.9 134.882,159.233 132.5,157.5C 131.05,156.15 130.383,154.484 130.5,152.5C 129.167,152.5 127.833,152.5 126.5,152.5C 126.5,150.833 126.5,149.167 126.5,147.5C 127.5,147.5 128.5,147.5 129.5,147.5C 129.34,145.801 129.506,144.134 130,142.5C 132.468,140.35 134.301,140.516 135.5,143C 137.605,144.131 139.605,145.297 141.5,146.5 Z"/></g>
<g><path style="opacity:1" fill="#5885dc" d="M 142.5,146.5 C 146.535,150.2 150.202,154.2 153.5,158.5C 152.5,158.5 151.5,158.5 150.5,158.5C 150.716,156.319 149.883,154.653 148,153.5C 147.667,153.833 147.333,154.167 147,154.5C 145.968,152.973 144.801,151.64 143.5,150.5C 142.566,149.432 142.232,148.099 142.5,146.5 Z"/></g>
<g><path style="opacity:0.028" fill="#d6fcfe" d="M 272.5,151.5 C 277.305,150.513 282.305,150.179 287.5,150.5C 312.833,150.5 338.167,150.5 363.5,150.5C 363.672,151.492 363.338,152.158 362.5,152.5C 332.671,151.502 302.671,151.169 272.5,151.5 Z"/></g>
<g><path style="opacity:0.004" fill="#fefffe" d="M 19.5,153.5 C 20.8333,154.167 20.8333,154.167 19.5,153.5 Z"/></g>
<g><path style="opacity:0.004" fill="#fefffe" d="M 299.5,155.5 C 300.833,156.167 300.833,156.167 299.5,155.5 Z"/></g>
<g><path style="opacity:0.004" fill="#fefffe" d="M 78.5,156.5 C 79.8333,157.167 79.8333,157.167 78.5,156.5 Z"/></g>
<g><path style="opacity:1" fill="#1e9ef4" d="M 395.5,139.5 C 394.566,140.568 394.232,141.901 394.5,143.5C 393.07,143.579 391.736,143.246 390.5,142.5C 389.793,146.317 388.459,148.983 386.5,150.5C 385.5,150.5 384.5,150.5 383.5,150.5C 382.066,155.43 378.732,158.597 373.5,160C 374.517,161.049 374.684,162.216 374,163.5C 372.497,163.165 371.164,163.165 370,163.5C 369.506,165.134 369.34,166.801 369.5,168.5C 366.412,168.197 364.746,169.53 364.5,172.5C 363.5,172.5 362.5,172.5 361.5,172.5C 361.5,174.167 361.5,175.833 361.5,177.5C 361.167,178.5 360.5,179.167 359.5,179.5C 357.97,178.933 356.47,178.267 355,177.5C 355.078,181.658 353.078,183.991 349,184.5C 347.806,182.475 346.306,182.141 344.5,183.5C 341.849,185.829 339.182,188.163 336.5,190.5C 338.401,191.231 340.401,191.231 342.5,190.5C 342.762,191.978 342.429,193.311 341.5,194.5C 340.914,194.291 340.414,193.957 340,193.5C 339.506,195.134 339.34,196.801 339.5,198.5C 334.999,200.162 333.666,198.662 335.5,194C 334.048,191.545 333.048,188.878 332.5,186C 333.619,184.124 335.286,183.291 337.5,183.5C 337.343,182.127 337.51,180.793 338,179.5C 340.41,176.603 342.577,173.603 344.5,170.5C 349.833,163.833 355.833,157.833 362.5,152.5C 363.338,152.158 363.672,151.492 363.5,150.5C 364.738,150.19 364.738,149.69 363.5,149C 360.504,148.478 358.171,146.978 356.5,144.5C 357,144.167 357.5,143.833 358,143.5C 362.631,146.565 367.631,148.899 373,150.5C 374.147,148.269 375.147,145.935 376,143.5C 376.862,145.594 378.028,146.594 379.5,146.5C 378.253,148.497 377.419,150.497 377,152.5C 380.922,151.816 382.422,149.482 381.5,145.5C 382.833,145.5 384.167,145.5 385.5,145.5C 385.281,144.325 385.614,143.325 386.5,142.5C 389.167,140.833 391.833,139.167 394.5,137.5C 395.298,137.957 395.631,138.624 395.5,139.5 Z"/></g>
<g><path style="opacity:1" fill="#5b8fe3" d="M 156.5,161.5 C 160.167,164.5 163.5,167.833 166.5,171.5C 164.315,171.112 162.482,170.112 161,168.5C 158.163,170.183 157.33,169.683 158.5,167C 157.68,165.2 157.014,163.366 156.5,161.5 Z"/></g>
<g><path style="opacity:1" fill="#50a4e9" d="M 396.5,133.5 C 397.638,136.304 397.805,139.304 397,142.5C 385.272,154.396 373.438,166.063 361.5,177.5C 361.5,175.833 361.5,174.167 361.5,172.5C 362.5,172.5 363.5,172.5 364.5,172.5C 364.746,169.53 366.412,168.197 369.5,168.5C 369.34,166.801 369.506,165.134 370,163.5C 371.164,163.165 372.497,163.165 374,163.5C 374.684,162.216 374.517,161.049 373.5,160C 378.732,158.597 382.066,155.43 383.5,150.5C 384.5,150.5 385.5,150.5 386.5,150.5C 388.459,148.983 389.793,146.317 390.5,142.5C 391.736,143.246 393.07,143.579 394.5,143.5C 394.232,141.901 394.566,140.568 395.5,139.5C 396.461,137.735 396.795,135.735 396.5,133.5 Z"/></g>
<g><path style="opacity:0.004" fill="#fefffe" d="M 336.5,174.5 C 337.833,175.167 337.833,175.167 336.5,174.5 Z"/></g>
<g><path style="opacity:1" fill="#2b80ef" d="M 143.5,150.5 C 144.801,151.64 145.968,152.973 147,154.5C 147.333,154.167 147.667,153.833 148,153.5C 149.883,154.653 150.716,156.319 150.5,158.5C 151.5,158.5 152.5,158.5 153.5,158.5C 154.833,159.167 155.833,160.167 156.5,161.5C 157.014,163.366 157.68,165.2 158.5,167C 157.33,169.683 158.163,170.183 161,168.5C 162.482,170.112 164.315,171.112 166.5,171.5C 167.167,172.167 167.833,172.833 168.5,173.5C 168.262,176.408 169.262,178.742 171.5,180.5C 170.282,180.109 169.448,180.776 169,182.5C 166.988,182.475 164.988,182.475 163,182.5C 162.05,181.978 161.216,181.311 160.5,180.5C 159.5,181.167 158.5,181.833 157.5,182.5C 155.925,181.544 154.258,180.877 152.5,180.5C 143.494,171.494 134.827,162.16 126.5,152.5C 127.833,152.5 129.167,152.5 130.5,152.5C 130.383,154.484 131.05,156.15 132.5,157.5C 134.882,159.233 137.215,160.9 139.5,162.5C 140.167,162.167 140.833,161.833 141.5,161.5C 140.833,160.5 140.167,159.5 139.5,158.5C 142.785,158.302 144.452,156.635 144.5,153.5C 140.995,153.306 140.662,152.306 143.5,150.5 Z"/></g>
<g><path style="opacity:1" fill="#4681e7" d="M 285.5,174.5 C 292.911,176.329 294.245,180.162 289.5,186C 282.333,187.5 279.5,184.667 281,177.5C 282.409,176.219 283.909,175.219 285.5,174.5 Z"/></g>
<g><path style="opacity:0.004" fill="#fefffe" d="M 199.5,180.5 C 200.833,181.167 200.833,181.167 199.5,180.5 Z"/></g>
<g><path style="opacity:1" fill="#2a88ef" d="M 168.5,173.5 C 172.868,177.867 176.868,182.533 180.5,187.5C 180.64,189.124 179.973,190.29 178.5,191C 183.533,193.701 187.199,197.701 189.5,203C 189.16,206.893 187.16,208.56 183.5,208C 187.443,204.364 187.443,200.864 183.5,197.5C 184.345,198.989 184.345,200.822 183.5,203C 182.465,204.274 181.298,205.44 180,206.5C 179.517,205.552 179.351,204.552 179.5,203.5C 176.509,203.67 174.509,202.337 173.5,199.5C 172.817,199.863 172.15,200.196 171.5,200.5C 165.194,193.86 158.861,187.193 152.5,180.5C 154.258,180.877 155.925,181.544 157.5,182.5C 158.5,181.833 159.5,181.167 160.5,180.5C 161.216,181.311 162.05,181.978 163,182.5C 164.988,182.475 166.988,182.475 169,182.5C 169.448,180.776 170.282,180.109 171.5,180.5C 169.262,178.742 168.262,176.408 168.5,173.5 Z"/></g>
<g><path style="opacity:1" fill="#38a2ef" d="M 344.5,170.5 C 342.577,173.603 340.41,176.603 338,179.5C 337.51,180.793 337.343,182.127 337.5,183.5C 335.286,183.291 333.619,184.124 332.5,186C 333.048,188.878 334.048,191.545 335.5,194C 333.666,198.662 334.999,200.162 339.5,198.5C 339.34,196.801 339.506,195.134 340,193.5C 340.414,193.957 340.914,194.291 341.5,194.5C 342.429,193.311 342.762,191.978 342.5,190.5C 340.401,191.231 338.401,191.231 336.5,190.5C 339.182,188.163 341.849,185.829 344.5,183.5C 346.306,182.141 347.806,182.475 349,184.5C 353.078,183.991 355.078,181.658 355,177.5C 356.47,178.267 357.97,178.933 359.5,179.5C 346.092,194.242 332.092,208.242 317.5,221.5C 317.212,218.603 316.545,215.77 315.5,213C 316.059,208.723 316.726,208.556 317.5,212.5C 318.93,212.579 320.264,212.246 321.5,211.5C 322.524,212.853 323.857,213.52 325.5,213.5C 325.5,211.5 325.5,209.5 325.5,207.5C 326.822,207.67 327.989,207.337 329,206.5C 329.093,203.993 329.926,201.826 331.5,200C 330.207,199.51 328.873,199.343 327.5,199.5C 327.66,197.801 327.494,196.134 327,194.5C 326.751,195.624 326.251,196.624 325.5,197.5C 324.604,198.506 323.938,198.506 323.5,197.5C 325.184,196.146 325.684,194.479 325,192.5C 321.937,195.076 318.771,197.409 315.5,199.5C 324.806,189.527 334.473,179.86 344.5,170.5 Z"/></g>
<g><path style="opacity:0.004" fill="#fefffe" d="M 362.5,193.5 C 363.833,194.167 363.833,194.167 362.5,193.5 Z"/></g>
<g><path style="opacity:0.004" fill="#fefffe" d="M 97.5,198.5 C 98.8333,199.167 98.8333,199.167 97.5,198.5 Z"/></g>
<g><path style="opacity:1" fill="#75a3e3" d="M 189.5,195.5 C 192.208,197.266 194.208,199.599 195.5,202.5C 191.811,201.635 189.811,199.302 189.5,195.5 Z"/></g>
<g><path style="opacity:0.004" fill="#fefffe" d="M 480.5,201.5 C 481.833,202.167 481.833,202.167 480.5,201.5 Z"/></g>
<g><path style="opacity:0.004" fill="#fefffe" d="M 364.5,211.5 C 365.833,212.167 365.833,212.167 364.5,211.5 Z"/></g>
<g><path style="opacity:0.004" fill="#fefffe" d="M 449.5,212.5 C 450.833,213.167 450.833,213.167 449.5,212.5 Z"/></g>
<g><path style="opacity:1" fill="#19a1f5" d="M 317.5,221.5 C 315.833,221.5 314.167,221.5 312.5,221.5C 312.36,219.876 313.027,218.71 314.5,218C 313.833,217.833 313.167,217.667 312.5,217.5C 309.178,218.368 306.344,220.034 304,222.5C 301.609,221.398 301.109,222.064 302.5,224.5C 301.91,225.799 300.91,226.632 299.5,227C 299.888,228.808 299.888,230.475 299.5,232C 301.863,232.589 302.863,234.089 302.5,236.5C 300.833,236.5 299.167,236.5 297.5,236.5C 297.5,235.5 297.5,234.5 297.5,233.5C 295.5,234.167 293.5,234.833 291.5,235.5C 292.244,233.014 293.744,231.014 296,229.5C 296.687,227.08 296.187,224.913 294.5,223C 296.415,220.6 298.081,218.1 299.5,215.5C 304.5,209.833 309.833,204.5 315.5,199.5C 318.771,197.409 321.937,195.076 325,192.5C 325.684,194.479 325.184,196.146 323.5,197.5C 323.938,198.506 324.604,198.506 325.5,197.5C 326.251,196.624 326.751,195.624 327,194.5C 327.494,196.134 327.66,197.801 327.5,199.5C 328.873,199.343 330.207,199.51 331.5,200C 329.926,201.826 329.093,203.993 329,206.5C 327.989,207.337 326.822,207.67 325.5,207.5C 325.5,209.5 325.5,211.5 325.5,213.5C 323.857,213.52 322.524,212.853 321.5,211.5C 320.264,212.246 318.93,212.579 317.5,212.5C 316.726,208.556 316.059,208.723 315.5,213C 316.545,215.77 317.212,218.603 317.5,221.5 Z"/></g>
<g><path style="opacity:0.004" fill="#fefffe" d="M 291.5,216.5 C 292.833,217.167 292.833,217.167 291.5,216.5 Z"/></g>
<g><path style="opacity:1" fill="#278ef0" d="M 180.5,187.5 C 183.803,189.802 186.803,192.468 189.5,195.5C 189.811,199.302 191.811,201.635 195.5,202.5C 200.167,206.5 204.5,210.833 208.5,215.5C 209.014,217.366 209.68,219.2 210.5,221C 209.667,223.5 208.833,226 208,228.5C 204.667,229.5 204.667,230.5 208,231.5C 208.49,232.793 208.657,234.127 208.5,235.5C 206.784,235.371 205.117,235.038 203.5,234.5C 202.605,231.776 202.272,229.109 202.5,226.5C 201.833,227.167 201.167,227.833 200.5,228.5C 198.925,227.544 197.258,226.877 195.5,226.5C 187.509,217.875 179.509,209.208 171.5,200.5C 172.15,200.196 172.817,199.863 173.5,199.5C 174.509,202.337 176.509,203.67 179.5,203.5C 179.351,204.552 179.517,205.552 180,206.5C 181.298,205.44 182.465,204.274 183.5,203C 184.345,200.822 184.345,198.989 183.5,197.5C 187.443,200.864 187.443,204.364 183.5,208C 187.16,208.56 189.16,206.893 189.5,203C 187.199,197.701 183.533,193.701 178.5,191C 179.973,190.29 180.64,189.124 180.5,187.5 Z"/></g>
<g><path style="opacity:0.004" fill="#fefffe" d="M 97.5,218.5 C 98.8333,219.167 98.8333,219.167 97.5,218.5 Z"/></g>
<g><path style="opacity:0.004" fill="#fefffe" d="M 397.5,220.5 C 398.833,221.167 398.833,221.167 397.5,220.5 Z"/></g>
<g><path style="opacity:1" fill="#5a9fe8" d="M 195.5,226.5 C 197.258,226.877 198.925,227.544 200.5,228.5C 201.167,227.833 201.833,227.167 202.5,226.5C 202.272,229.109 202.605,231.776 203.5,234.5C 200.5,232.167 197.833,229.5 195.5,226.5 Z"/></g>
<g><path style="opacity:0.004" fill="#fefffe" d="M 159.5,231.5 C 160.833,232.167 160.833,232.167 159.5,231.5 Z"/></g>
<g><path style="opacity:0.004" fill="#fefffe" d="M 400.5,231.5 C 401.833,232.167 401.833,232.167 400.5,231.5 Z"/></g>
<g><path style="opacity:0.004" fill="#fefffe" d="M 144.5,234.5 C 145.833,235.167 145.833,235.167 144.5,234.5 Z"/></g>
<g><path style="opacity:1" fill="#22a7f4" d="M 299.5,215.5 C 298.081,218.1 296.415,220.6 294.5,223C 296.187,224.913 296.687,227.08 296,229.5C 293.744,231.014 292.244,233.014 291.5,235.5C 293.5,234.833 295.5,234.167 297.5,233.5C 297.5,234.5 297.5,235.5 297.5,236.5C 299.167,236.5 300.833,236.5 302.5,236.5C 302.863,234.089 301.863,232.589 299.5,232C 299.888,230.475 299.888,228.808 299.5,227C 300.91,226.632 301.91,225.799 302.5,224.5C 301.109,222.064 301.609,221.398 304,222.5C 306.344,220.034 309.178,218.368 312.5,217.5C 313.167,217.667 313.833,217.833 314.5,218C 313.027,218.71 312.36,219.876 312.5,221.5C 314.167,221.5 315.833,221.5 317.5,221.5C 308.888,231.78 299.555,241.447 289.5,250.5C 288.509,257.313 288.175,264.313 288.5,271.5C 287.5,271.5 286.5,271.5 285.5,271.5C 284.262,266.611 283.429,261.611 283,256.5C 282.078,266.935 281.078,277.269 280,287.5C 279.667,281.5 279.333,275.5 279,269.5C 277.667,270.167 276.333,270.833 275,271.5C 274.333,262.833 274.333,254.167 275,245.5C 277.184,242.48 278.684,239.147 279.5,235.5C 285.833,228.5 292.5,221.833 299.5,215.5 Z"/></g>
<g><path style="opacity:1" fill="#2090f1" d="M 208.5,215.5 C 216.198,222.864 223.531,230.53 230.5,238.5C 232.959,242.819 233.959,247.485 233.5,252.5C 232.67,261.658 232.17,270.991 232,280.5C 231.929,276.072 231.095,272.572 229.5,270C 230.324,267.429 230.324,264.929 229.5,262.5C 224.611,263.143 221.777,260.809 221,255.5C 219.731,259.649 219.065,263.982 219,268.5C 218.667,261.833 218.333,255.167 218,248.5C 217.246,244.911 215.079,242.911 211.5,242.5C 208.5,240.167 205.833,237.5 203.5,234.5C 205.117,235.038 206.784,235.371 208.5,235.5C 208.657,234.127 208.49,232.793 208,231.5C 204.667,230.5 204.667,229.5 208,228.5C 208.833,226 209.667,223.5 210.5,221C 209.68,219.2 209.014,217.366 208.5,215.5 Z"/></g>
<g><path style="opacity:0.282" fill="#c4e0fc" d="M 212.5,244.5 C 214.5,244.5 215.5,245.5 215.5,247.5C 214.167,246.833 213.167,245.833 212.5,244.5 Z"/></g>
<g><path style="opacity:0.004" fill="#fefffe" d="M 27.5,263.5 C 28.8333,264.167 28.8333,264.167 27.5,263.5 Z"/></g>
<g><path style="opacity:0.004" fill="#fefffe" d="M 45.5,270.5 C 46.8333,271.167 46.8333,271.167 45.5,270.5 Z"/></g>
<g><path style="opacity:1" fill="#1db3f1" d="M 279.5,235.5 C 278.684,239.147 277.184,242.48 275,245.5C 274.333,254.167 274.333,262.833 275,271.5C 276.333,270.833 277.667,270.167 279,269.5C 279.333,275.5 279.667,281.5 280,287.5C 281.078,277.269 282.078,266.935 283,256.5C 283.429,261.611 284.262,266.611 285.5,271.5C 286.5,271.5 287.5,271.5 288.5,271.5C 288.175,264.313 288.509,257.313 289.5,250.5C 289.82,269.909 289.487,289.243 288.5,308.5C 286.833,308.5 285.167,308.5 283.5,308.5C 283.5,310.167 283.5,311.833 283.5,313.5C 281.5,313.5 279.5,313.5 277.5,313.5C 277.67,314.822 277.337,315.989 276.5,317C 274.348,318.413 272.014,319.246 269.5,319.5C 269.763,324.188 268.43,324.521 265.5,320.5C 266.5,319.667 267.5,318.833 268.5,318C 266.941,317.02 265.274,316.187 263.5,315.5C 264.945,313.937 266.611,312.604 268.5,311.5C 269.238,309.06 270.571,307.06 272.5,305.5C 272.376,304.893 272.043,304.56 271.5,304.5C 272.31,284.21 272.81,263.876 273,243.5C 274.246,240.087 276.413,237.421 279.5,235.5 Z"/></g>
<g><path style="opacity:1" fill="#179ef2" d="M 211.5,242.5 C 215.079,242.911 217.246,244.911 218,248.5C 218.333,255.167 218.667,261.833 219,268.5C 219.065,263.982 219.731,259.649 221,255.5C 221.777,260.809 224.611,263.143 229.5,262.5C 230.324,264.929 230.324,267.429 229.5,270C 231.095,272.572 231.929,276.072 232,280.5C 232.17,270.991 232.67,261.658 233.5,252.5C 233.5,269.167 233.5,285.833 233.5,302.5C 232.25,302.423 231.417,301.756 231,300.5C 230.131,295.731 229.131,291.064 228,286.5C 227.667,289.5 227.333,292.5 227,295.5C 226.167,296.333 225.333,297.167 224.5,298C 223.4,298.432 222.733,297.932 222.5,296.5C 222.018,293.459 221.351,290.459 220.5,287.5C 219.702,289.078 219.202,290.744 219,292.5C 218.829,285.321 218.329,278.321 217.5,271.5C 217.666,264.159 217.5,256.826 217,249.5C 216.283,248.956 215.783,248.289 215.5,247.5C 215.5,245.5 214.5,244.5 212.5,244.5C 212.167,243.833 211.833,243.167 211.5,242.5 Z"/></g>
<g><path style="opacity:0.004" fill="#fefffe" d="M 254.5,291.5 C 255.833,292.167 255.833,292.167 254.5,291.5 Z"/></g>
<g><path style="opacity:0.004" fill="#fefffe" d="M 144.5,292.5 C 145.833,293.167 145.833,293.167 144.5,292.5 Z"/></g>
<g><path style="opacity:0.004" fill="#fefffe" d="M 80.5,294.5 C 81.8333,295.167 81.8333,295.167 80.5,294.5 Z"/></g>
<g><path style="opacity:0.004" fill="#fefffe" d="M 470.5,294.5 C 471.833,295.167 471.833,295.167 470.5,294.5 Z"/></g>
<g><path style="opacity:0.384" fill="#3286bc" d="M 230.5,238.5 C 232.61,239.453 233.777,241.119 234,243.5C 234.5,278.165 234.667,312.832 234.5,347.5C 233.507,338.682 233.173,329.682 233.5,320.5C 233.5,314.5 233.5,308.5 233.5,302.5C 233.5,285.833 233.5,269.167 233.5,252.5C 233.959,247.485 232.959,242.819 230.5,238.5 Z"/></g>
<g><path style="opacity:1" fill="#1ca7ef" d="M 217.5,271.5 C 218.329,278.321 218.829,285.321 219,292.5C 219.202,290.744 219.702,289.078 220.5,287.5C 221.351,290.459 222.018,293.459 222.5,296.5C 222.733,297.932 223.4,298.432 224.5,298C 225.333,297.167 226.167,296.333 227,295.5C 227.333,292.5 227.667,289.5 228,286.5C 229.131,291.064 230.131,295.731 231,300.5C 231.417,301.756 232.25,302.423 233.5,302.5C 233.5,308.5 233.5,314.5 233.5,320.5C 233.167,320.5 232.833,320.5 232.5,320.5C 232.508,314.792 232.008,314.459 231,319.5C 230.04,313.861 229.207,308.194 228.5,302.5C 227.614,306.476 226.948,310.476 226.5,314.5C 225.5,314.5 224.5,314.5 223.5,314.5C 223.649,313.448 223.483,312.448 223,311.5C 222.316,313.359 221.316,315.026 220,316.5C 219.501,320.152 219.335,323.818 219.5,327.5C 219.666,334.175 219.5,340.842 219,347.5C 218.828,340.654 218.328,333.987 217.5,327.5C 217.5,308.833 217.5,290.167 217.5,271.5 Z"/></g>
<g><path style="opacity:0.004" fill="#fefffe" d="M 113.5,299.5 C 114.833,300.167 114.833,300.167 113.5,299.5 Z"/></g>
<g><path style="opacity:0.004" fill="#fefffe" d="M 39.5,307.5 C 40.8333,308.167 40.8333,308.167 39.5,307.5 Z"/></g>
<g><path style="opacity:1" fill="#10b1f5" d="M 232.5,320.5 C 232.733,326.606 232.066,332.606 230.5,338.5C 228.209,337.104 227.875,335.271 229.5,333C 229,331.5 228.5,330 228,328.5C 226.221,331.276 225.221,330.943 225,327.5C 223.082,332.649 221.749,332.316 221,326.5C 220.617,327.056 220.117,327.389 219.5,327.5C 219.335,323.818 219.501,320.152 220,316.5C 221.316,315.026 222.316,313.359 223,311.5C 223.483,312.448 223.649,313.448 223.5,314.5C 224.5,314.5 225.5,314.5 226.5,314.5C 226.948,310.476 227.614,306.476 228.5,302.5C 229.207,308.194 230.04,313.861 231,319.5C 232.008,314.459 232.508,314.792 232.5,320.5 Z"/></g>
<g><path style="opacity:0.004" fill="#fefffe" d="M 99.5,312.5 C 100.833,313.167 100.833,313.167 99.5,312.5 Z"/></g>
<g><path style="opacity:0.004" fill="#fefffe" d="M 432.5,313.5 C 433.833,314.167 433.833,314.167 432.5,313.5 Z"/></g>
<g><path style="opacity:0.004" fill="#fefffe" d="M 114.5,321.5 C 115.833,322.167 115.833,322.167 114.5,321.5 Z"/></g>
<g><path style="opacity:0.004" fill="#fefffe" d="M 319.5,321.5 C 320.833,322.167 320.833,322.167 319.5,321.5 Z"/></g>
<g><path style="opacity:1" fill="#2fbef0" d="M 271.5,304.5 C 272.043,304.56 272.376,304.893 272.5,305.5C 270.571,307.06 269.238,309.06 268.5,311.5C 266.611,312.604 264.945,313.937 263.5,315.5C 265.274,316.187 266.941,317.02 268.5,318C 267.5,318.833 266.5,319.667 265.5,320.5C 268.43,324.521 269.763,324.188 269.5,319.5C 272.014,319.246 274.348,318.413 276.5,317C 277.337,315.989 277.67,314.822 277.5,313.5C 279.5,313.5 281.5,313.5 283.5,313.5C 283.5,311.833 283.5,310.167 283.5,308.5C 285.167,308.5 286.833,308.5 288.5,308.5C 282.252,317.751 275.252,326.418 267.5,334.5C 265.425,334.302 263.425,334.135 261.5,334C 263.007,334.837 263.507,336.004 263,337.5C 260.378,341.125 257.378,344.458 254,347.5C 253.95,344.288 255.117,341.454 257.5,339C 257.333,338.5 257.167,338 257,337.5C 256.275,339.158 255.108,339.658 253.5,339C 250.957,337.618 248.957,335.785 247.5,333.5C 248.412,331.405 249.579,329.405 251,327.5C 257.868,319.688 264.701,312.022 271.5,304.5 Z"/></g>
<g><path style="opacity:0.004" fill="#fefffe" d="M 328.5,330.5 C 329.833,331.167 329.833,331.167 328.5,330.5 Z"/></g>
<g><path style="opacity:0.004" fill="#fefffe" d="M 88.5,337.5 C 89.8333,338.167 89.8333,338.167 88.5,337.5 Z"/></g>
<g><path style="opacity:0.004" fill="#fefffe" d="M 180.5,339.5 C 181.833,340.167 181.833,340.167 180.5,339.5 Z"/></g>
<g><path style="opacity:0.004" fill="#fefffe" d="M 441.5,339.5 C 442.833,340.167 442.833,340.167 441.5,339.5 Z"/></g>
<g><path style="opacity:0.004" fill="#fefffe" d="M 121.5,341.5 C 122.833,342.167 122.833,342.167 121.5,341.5 Z"/></g>
<g><path style="opacity:1" fill="#14baf2" d="M 232.5,320.5 C 232.833,320.5 233.167,320.5 233.5,320.5C 233.173,329.682 233.507,338.682 234.5,347.5C 234.56,348.043 234.893,348.376 235.5,348.5C 236.518,347.807 237.518,347.141 238.5,346.5C 238.306,348.912 236.973,349.912 234.5,349.5C 235.735,351.773 235.402,353.606 233.5,355C 230.183,355.498 226.85,355.665 223.5,355.5C 223.997,359.759 223.331,363.759 221.5,367.5C 222.768,369.047 224.435,370.047 226.5,370.5C 227.895,369.185 228.895,369.519 229.5,371.5C 226.831,372.687 224.165,373.52 221.5,374C 220.376,373.161 219.709,371.994 219.5,370.5C 218.962,364.337 218.296,358.337 217.5,352.5C 217.5,344.167 217.5,335.833 217.5,327.5C 218.328,333.987 218.828,340.654 219,347.5C 219.5,340.842 219.666,334.175 219.5,327.5C 220.117,327.389 220.617,327.056 221,326.5C 221.749,332.316 223.082,332.649 225,327.5C 225.221,330.943 226.221,331.276 228,328.5C 228.5,330 229,331.5 229.5,333C 227.875,335.271 228.209,337.104 230.5,338.5C 232.066,332.606 232.733,326.606 232.5,320.5 Z"/></g>
<g><path style="opacity:1" fill="#1cc0f3" d="M 236.5,371.5 C 233.295,378.936 227.962,381.103 220.5,378C 219.299,377.097 218.465,375.931 218,374.5C 217.5,367.174 217.334,359.841 217.5,352.5C 218.296,358.337 218.962,364.337 219.5,370.5C 219.709,371.994 220.376,373.161 221.5,374C 224.165,373.52 226.831,372.687 229.5,371.5C 228.895,369.519 227.895,369.185 226.5,370.5C 224.435,370.047 222.768,369.047 221.5,367.5C 223.331,363.759 223.997,359.759 223.5,355.5C 226.85,355.665 230.183,355.498 233.5,355C 235.402,353.606 235.735,351.773 234.5,349.5C 236.973,349.912 238.306,348.912 238.5,346.5C 240.796,342.824 243.629,339.491 247,336.5C 247.49,337.793 247.657,339.127 247.5,340.5C 249.635,340.147 250.968,340.98 251.5,343C 249.987,344.879 249.321,347.046 249.5,349.5C 250.552,349.351 251.552,349.517 252.5,350C 250.75,351.319 248.75,351.819 246.5,351.5C 246.5,353.833 246.5,356.167 246.5,358.5C 245.5,358.5 244.5,358.5 243.5,358.5C 243.762,359.978 243.429,361.311 242.5,362.5C 241.167,363.167 240.167,364.167 239.5,365.5C 238.311,366.429 236.978,366.762 235.5,366.5C 235.629,368.216 235.962,369.883 236.5,371.5 Z"/></g>
<g><path style="opacity:0.682" fill="#4ec3ea" d="M 247.5,333.5 C 248.957,335.785 250.957,337.618 253.5,339C 255.108,339.658 256.275,339.158 257,337.5C 257.167,338 257.333,338.5 257.5,339C 255.117,341.454 253.95,344.288 254,347.5C 257.378,344.458 260.378,341.125 263,337.5C 263.507,336.004 263.007,334.837 261.5,334C 263.425,334.135 265.425,334.302 267.5,334.5C 257.513,347.151 247.18,359.484 236.5,371.5C 235.962,369.883 235.629,368.216 235.5,366.5C 236.978,366.762 238.311,366.429 239.5,365.5C 240.167,364.167 241.167,363.167 242.5,362.5C 243.429,361.311 243.762,359.978 243.5,358.5C 244.5,358.5 245.5,358.5 246.5,358.5C 246.5,356.167 246.5,353.833 246.5,351.5C 248.75,351.819 250.75,351.319 252.5,350C 251.552,349.517 250.552,349.351 249.5,349.5C 249.321,347.046 249.987,344.879 251.5,343C 250.968,340.98 249.635,340.147 247.5,340.5C 247.657,339.127 247.49,337.793 247,336.5C 243.629,339.491 240.796,342.824 238.5,346.5C 237.518,347.141 236.518,347.807 235.5,348.5C 234.893,348.376 234.56,348.043 234.5,347.5C 238.85,342.76 243.183,338.093 247.5,333.5 Z"/></g>
<g><path style="opacity:0.004" fill="#fefffe" d="M 375.5,355.5 C 376.833,356.167 376.833,356.167 375.5,355.5 Z"/></g>
<g><path style="opacity:0.004" fill="#fefffe" d="M 298.5,358.5 C 299.833,359.167 299.833,359.167 298.5,358.5 Z"/></g>
<g><path style="opacity:0.004" fill="#fefffe" d="M 273.5,366.5 C 274.833,367.167 274.833,367.167 273.5,366.5 Z"/></g>
<g><path style="opacity:0.004" fill="#fefffe" d="M 270.5,377.5 C 271.833,378.167 271.833,378.167 270.5,377.5 Z"/></g>
<g><path style="opacity:0.004" fill="#fefffe" d="M 402.5,385.5 C 403.833,386.167 403.833,386.167 402.5,385.5 Z"/></g>
<g><path style="opacity:0.004" fill="#fefffe" d="M 225.5,388.5 C 226.833,389.167 226.833,389.167 225.5,388.5 Z"/></g>
<g><path style="opacity:0.004" fill="#fefffe" d="M 76.5,412.5 C 77.8333,413.167 77.8333,413.167 76.5,412.5 Z"/></g>
<g><path style="opacity:0.004" fill="#fefffe" d="M 416.5,427.5 C 417.833,428.167 417.833,428.167 416.5,427.5 Z"/></g>
<g><path style="opacity:0.004" fill="#fefffe" d="M 488.5,441.5 C 489.833,442.167 489.833,442.167 488.5,441.5 Z"/></g>
<g><path style="opacity:0.004" fill="#fefffe" d="M 57.5,445.5 C 58.8333,446.167 58.8333,446.167 57.5,445.5 Z"/></g>
<g><path style="opacity:0.004" fill="#fefffe" d="M 129.5,447.5 C 130.833,448.167 130.833,448.167 129.5,447.5 Z"/></g>
<g><path style="opacity:0.004" fill="#fefffe" d="M 292.5,448.5 C 293.833,449.167 293.833,449.167 292.5,448.5 Z"/></g>
<g><path style="opacity:0.004" fill="#fefffe" d="M 357.5,454.5 C 358.833,455.167 358.833,455.167 357.5,454.5 Z"/></g>
<g><path style="opacity:0.004" fill="#fefffe" d="M 107.5,461.5 C 108.833,462.167 108.833,462.167 107.5,461.5 Z"/></g>
<g><path style="opacity:0.004" fill="#fefffe" d="M 319.5,463.5 C 320.833,464.167 320.833,464.167 319.5,463.5 Z"/></g>
<g><path style="opacity:0.004" fill="#fefffe" d="M 349.5,465.5 C 350.833,466.167 350.833,466.167 349.5,465.5 Z"/></g>
<g><path style="opacity:0.004" fill="#fefffe" d="M 93.5,473.5 C 94.8333,474.167 94.8333,474.167 93.5,473.5 Z"/></g>
<g><path style="opacity:0.004" fill="#fefffe" d="M 174.5,482.5 C 175.833,483.167 175.833,483.167 174.5,482.5 Z"/></g>
<g><path style="opacity:0.004" fill="#fefffe" d="M 46.5,486.5 C 47.8333,487.167 47.8333,487.167 46.5,486.5 Z"/></g>
<g><path style="opacity:0.004" fill="#fefffe" d="M 292.5,487.5 C 293.833,488.167 293.833,488.167 292.5,487.5 Z"/></g>
<g><path style="opacity:0.004" fill="#fefffe" d="M 111.5,490.5 C 112.833,491.167 112.833,491.167 111.5,490.5 Z"/></g>
<g><path style="opacity:0.004" fill="#fefffe" d="M 8.5,496.5 C 9.83333,497.167 9.83333,497.167 8.5,496.5 Z"/></g>
</svg>
